<?xml version="1.0" encoding="UTF-8"?>
<svg version="1.1" xmlns="http://www.w3.org/2000/svg" width="48" height="48">
<path d="M0 0 C0.82290527 0.00202423 1.64581055 0.00404846 2.49365234 0.00613403 C3.33331543 0.00517731 4.17297852 0.00422058 5.03808594 0.00323486 C6.81689529 0.00255306 8.59570712 0.00440737 10.37451172 0.00857544 C13.10699011 0.01392371 15.83930411 0.00863048 18.57177734 0.00222778 C20.29573604 0.00288856 22.01969464 0.00416973 23.74365234 0.00613403 C24.56655762 0.0041098 25.38946289 0.00208557 26.23730469 0 C32.0037018 0.02399599 32.0037018 0.02399599 33.11865234 1.13894653 C33.21877636 3.34545309 33.24946414 5.5551704 33.25146484 7.76394653 C33.25242157 8.42604126 33.2533783 9.08813599 33.25436401 9.77029419 C33.25504561 11.17247614 33.25319276 12.57466124 33.24902344 13.97683716 C33.24367481 16.12990367 33.24896904 18.28276156 33.25537109 20.43582153 C33.25471031 21.795197 33.25342914 23.15457233 33.25146484 24.51394653 C33.25033691 25.75918091 33.24920898 27.00441528 33.24804688 28.28738403 C33.11865234 31.13894653 33.11865234 31.13894653 32.11865234 32.13894653 C29.31871637 32.23997908 26.54396591 32.27864741 23.74365234 32.27175903 C22.90398926 32.27271576 22.06432617 32.27367249 21.19921875 32.2746582 C19.4204094 32.27534001 17.64159757 32.2734857 15.86279297 32.26931763 C13.13031458 32.26396936 10.39800058 32.26926259 7.66552734 32.27566528 C5.94156865 32.2750045 4.21761005 32.27372334 2.49365234 32.27175903 C1.67074707 32.27378326 0.8478418 32.2758075 0 32.27789307 C-5.76639711 32.25389708 -5.76639711 32.25389708 -6.88134766 31.13894653 C-6.98147167 28.93243997 -7.01215945 26.72272267 -7.01416016 24.51394653 C-7.01511688 23.85185181 -7.01607361 23.18975708 -7.01705933 22.50759888 C-7.01774092 21.10541692 -7.01588807 19.70323183 -7.01171875 18.30105591 C-7.00637012 16.1479894 -7.01166435 13.99513151 -7.01806641 11.84207153 C-7.01740562 10.48269607 -7.01612445 9.12332074 -7.01416016 7.76394653 C-7.01303223 6.51871216 -7.0119043 5.27347778 -7.01074219 3.99050903 C-6.78052319 -1.08299647 -4.5166088 0.01879518 0 0 Z M-2.88134766 4.13894653 C-2.88134766 4.79894653 -2.88134766 5.45894653 -2.88134766 6.13894653 C-0.51550347 7.84116398 1.82263332 9.37804287 4.30615234 10.88894653 C4.9796875 11.32593872 5.65322266 11.76293091 6.34716797 12.21316528 C10.25731106 14.71140284 10.25731106 14.71140284 14.71240234 14.62332153 C15.50646484 14.13347778 16.30052734 13.64363403 17.11865234 13.13894653 C18.65972656 12.31910278 18.65972656 12.31910278 20.23193359 11.48269653 C21.28767578 10.87425903 22.34341797 10.26582153 23.43115234 9.63894653 C24.49978516 9.03050903 25.56841797 8.42207153 26.66943359 7.79519653 C27.47767578 7.24863403 28.28591797 6.70207153 29.11865234 6.13894653 C29.11865234 5.47894653 29.11865234 4.81894653 29.11865234 4.13894653 C18.55865234 4.13894653 7.99865234 4.13894653 -2.88134766 4.13894653 Z M-2.88134766 11.13894653 C-2.88134766 16.74894653 -2.88134766 22.35894653 -2.88134766 28.13894653 C7.67865234 28.13894653 18.23865234 28.13894653 29.11865234 28.13894653 C29.11865234 22.52894653 29.11865234 16.91894653 29.11865234 11.13894653 C26.48896484 12.56207153 26.48896484 12.56207153 23.80615234 14.01394653 C22.82001953 14.54761841 21.83388672 15.08129028 20.81787109 15.63113403 C18.02278777 17.1461678 18.02278777 17.1461678 15.11865234 19.13894653 C10.29657544 18.8788345 7.25830955 17.2526679 3.30615234 14.57644653 C0.4427414 12.29414257 0.4427414 12.29414257 -2.88134766 11.13894653 Z " fill="#FFFFFF" transform="translate(10.88134765625,7.861053466796875)"/>
</svg>
